<svg width="295" height="51" viewBox="0 0 295 51" fill="none" xmlns="http://www.w3.org/2000/svg">
<path d="M103.096 37L97.452 27.31H93.712V37H90.618V13.302H98.268C100.059 13.302 101.566 13.608 102.79 14.22C104.037 14.832 104.966 15.6593 105.578 16.702C106.19 17.7447 106.496 18.9347 106.496 20.272C106.496 21.904 106.02 23.3433 105.068 24.59C104.139 25.8367 102.733 26.664 100.852 27.072L106.802 37H103.096ZM93.712 24.828H98.268C99.9453 24.828 101.203 24.42 102.042 23.604C102.881 22.7653 103.3 21.6547 103.3 20.272C103.3 18.8667 102.881 17.7787 102.042 17.008C101.226 16.2373 99.968 15.852 98.268 15.852H93.712V24.828ZM110.148 27.616C110.148 25.712 110.533 24.046 111.304 22.618C112.074 21.1673 113.128 20.0453 114.466 19.252C115.826 18.4587 117.333 18.062 118.988 18.062C120.62 18.062 122.036 18.4133 123.238 19.116C124.439 19.8187 125.334 20.7027 125.924 21.768V18.368H129.052V37H125.924V33.532C125.312 34.62 124.394 35.5267 123.17 36.252C121.968 36.9547 120.563 37.306 118.954 37.306C117.299 37.306 115.803 36.898 114.466 36.082C113.128 35.266 112.074 34.1213 111.304 32.648C110.533 31.1747 110.148 29.4973 110.148 27.616ZM125.924 27.65C125.924 26.2447 125.64 25.0207 125.074 23.978C124.507 22.9353 123.736 22.142 122.762 21.598C121.81 21.0313 120.756 20.748 119.6 20.748C118.444 20.748 117.39 21.02 116.438 21.564C115.486 22.108 114.726 22.9013 114.16 23.944C113.593 24.9867 113.31 26.2107 113.31 27.616C113.31 29.044 113.593 30.2907 114.16 31.356C114.726 32.3987 115.486 33.2033 116.438 33.77C117.39 34.314 118.444 34.586 119.6 34.586C120.756 34.586 121.81 34.314 122.762 33.77C123.736 33.2033 124.507 32.3987 125.074 31.356C125.64 30.2907 125.924 29.0553 125.924 27.65ZM135.878 15.342C135.289 15.342 134.79 15.138 134.382 14.73C133.974 14.322 133.77 13.8233 133.77 13.234C133.77 12.6447 133.974 12.146 134.382 11.738C134.79 11.33 135.289 11.126 135.878 11.126C136.445 11.126 136.921 11.33 137.306 11.738C137.714 12.146 137.918 12.6447 137.918 13.234C137.918 13.8233 137.714 14.322 137.306 14.73C136.921 15.138 136.445 15.342 135.878 15.342ZM137.374 18.368V37H134.28V18.368H137.374ZM145.741 11.84V37H142.647V11.84H145.741ZM175.834 18.368L170.02 37H166.824L162.336 22.21L157.848 37H154.652L148.804 18.368H151.966L156.25 34.008L160.874 18.368H164.036L168.558 34.042L172.774 18.368H175.834ZM177.749 27.616C177.749 25.712 178.134 24.046 178.905 22.618C179.676 21.1673 180.73 20.0453 182.067 19.252C183.427 18.4587 184.934 18.062 186.589 18.062C188.221 18.062 189.638 18.4133 190.839 19.116C192.04 19.8187 192.936 20.7027 193.525 21.768V18.368H196.653V37H193.525V33.532C192.913 34.62 191.995 35.5267 190.771 36.252C189.57 36.9547 188.164 37.306 186.555 37.306C184.9 37.306 183.404 36.898 182.067 36.082C180.73 35.266 179.676 34.1213 178.905 32.648C178.134 31.1747 177.749 29.4973 177.749 27.616ZM193.525 27.65C193.525 26.2447 193.242 25.0207 192.675 23.978C192.108 22.9353 191.338 22.142 190.363 21.598C189.411 21.0313 188.357 20.748 187.201 20.748C186.045 20.748 184.991 21.02 184.039 21.564C183.087 22.108 182.328 22.9013 181.761 23.944C181.194 24.9867 180.911 26.2107 180.911 27.616C180.911 29.044 181.194 30.2907 181.761 31.356C182.328 32.3987 183.087 33.2033 184.039 33.77C184.991 34.314 186.045 34.586 187.201 34.586C188.357 34.586 189.411 34.314 190.363 33.77C191.338 33.2033 192.108 32.3987 192.675 31.356C193.242 30.2907 193.525 29.0553 193.525 27.65ZM217.93 18.368L206.71 45.772H203.514L207.186 36.796L199.672 18.368H203.106L208.954 33.464L214.734 18.368H217.93Z" fill="white"/>
<g clip-path="url(#clip0_5939_237)">
<path fill-rule="evenodd" clip-rule="evenodd" d="M17.1055 9.50592L12.8214 10.2089C10.2274 11.0634 9.05731 14.3178 8.27106 16.6328C7.64578 18.4751 7.12574 20.366 6.62428 22.2386C6.01138 24.5536 5.42324 26.8747 4.81653 29.1897L0 40.0073C2.20397 45.6919 9.42257 45.2859 14.5796 44.6435C17.477 44.2799 20.3805 43.6799 23.2035 42.9526C24.5098 42.6193 25.8409 42.2557 27.1286 41.8376L28.0572 41.5345C28.0572 40.2619 28.0572 39.1771 28.3668 37.9105L28.6887 37.8317L65.2894 29.1231L45.4165 32.535C46.2461 31.3411 46.9581 30.0624 47.5524 28.7231L66.8681 25.3596L33.8457 29.3534L42.253 26.1778L67.1962 23.6809L42.8102 27.1292L40.761 28.517L33.8519 29.3534C33.8519 29.3534 26.7138 32.5168 26.7138 40.577C26.7138 40.577 25.8347 40.8558 24.3984 41.2376L22.4297 33.4501L23.2964 41.5224C22.6711 41.68 21.9839 41.8497 21.2472 42.0133L19.6438 33.6743L19.8666 42.3103C19.1795 42.4557 18.4613 42.589 17.7246 42.7224L16.6783 34.038L16.5917 42.9102C15.7497 43.0436 14.8891 43.1587 14.0224 43.2496L13.7067 34.1289L12.9947 43.3466C11.998 43.4314 11.0074 43.4738 10.054 43.4678L11.2056 34.0804L9.08826 43.4435C7.96771 43.395 6.90906 43.2678 5.95566 43.0375L8.46917 34.2622L5.00226 42.7587C4.30888 42.5224 3.68979 42.2194 3.16356 41.8376L6.28378 32.6683L2.55685 41.3224C2.12967 40.8982 1.79537 40.4013 1.57249 39.8195L6.11662 29.614L6.32092 28.8382L9.41019 33.3895L23.544 31.9956L28.3977 23.0204L32.7747 22.6204L30.5522 20.372L41.1882 20.8629L67.9267 20.4205L48.9825 20.1478L26.7076 18.7782L29.1654 21.2689L26.9367 21.4447L22.4297 30.3957L20.1143 30.5412L23.2778 17.4691L15.954 13.6451L10.5741 16.3662L7.75103 27.7716L6.90287 26.5838C9.12541 17.9661 10.5741 12.3421 13.1681 11.4876C19.9719 10.3665 23.3336 10.0453 31.5613 11.9361C32.1494 10.9543 32.0813 9.48774 32.0813 9.48774L34.4462 10.112C29.834 7.89389 25.1413 7.77268 21.2782 8.46961L21.1544 8.53022C21.792 8.22114 22.4668 7.94237 23.1726 7.71208C26.9181 6.87576 31.9451 7.7848 36.4026 9.20897L74 12.9724L36.805 7.94843C29.314 5.57886 23.2964 4.61527 17.1117 9.50592H17.1055ZM18.2199 30.6745L20.4672 18.9236L15.2235 15.8995L11.3851 18.0146L8.52489 28.8807L10.1655 31.1714L18.2261 30.6684L18.2199 30.6745ZM38.0122 11.1907L35.734 10.6574C35.412 10.5786 35.1025 10.6271 34.8239 10.7968C34.5391 10.9665 34.341 11.2089 34.2853 11.5301L33.7776 14.3117C33.6786 14.845 33.7405 15.348 34.05 15.7965C34.3596 16.251 34.7991 16.5237 35.3501 16.6086L38.0184 17.0207V11.1907H38.0122ZM39.2256 15.9177V16.851L68.7811 17.8812L39.2256 15.9177ZM71.8827 15.1541L39.2256 11.7846V12.7179L71.8827 15.1541ZM70.0378 16.2995L39.2256 13.8511V14.7844L70.0378 16.3056V16.2995ZM45.8128 29.0685C45.1441 30.42 44.327 31.6987 43.3859 32.8926L29.605 36.1712C30.4407 33.9592 32.3475 31.826 34.471 30.6987L45.8128 29.0685Z" fill="white"/>
</g>
<defs>
<clipPath id="clip0_5939_237">
<rect width="73" height="51" fill="white" transform="matrix(-1 0 0 1 73 0)"/>
</clipPath>
</defs>
</svg>
